<svg xmlns="http://www.w3.org/2000/svg" xmlns:xlink="http://www.w3.org/1999/xlink" aria-hidden="true" role="img" class="iconify iconify--logos" width="31.88" height="32" preserveAspectRatio="xMidYMid meet" viewBox="0 0 256 257"><defs><linearGradient id="IconifyId1813088fe1fbc01fb466" x1="-.828%" x2="57.636%" y1="7.652%" y2="78.411%"><stop offset="0%" stop-color="#41D1FF"></stop><stop offset="100%" stop-color="#BD34FE"></stop></linearGradient><linearGradient id="IconifyId1813088fe1fbc01fb467" x1="43.376%" x2="50.316%" y1="2.242%" y2="89.03%"><stop offset="0%" stop-color="#FFEA83"></stop><stop offset="8.333%" stop-color="#FFDD35"></stop><stop offset="100%" stop-color="#FFA800"></stop></linearGradient></defs><path fill="url(#IconifyId1813088fe1fbc01fb466)" d="M255.153 37.938L134.897 252.976c-2.483 4.44-8.862 4.466-11.382.048L.875 37.958c-3.019-4.114.502-9.724 5.624-8.612l126.027 28.086c1.623.367 3.314.367 4.937 0L250.36 29.376c5.122-1.141 8.643 4.478 5.623 8.612z"></path><path fill="url(#IconifyId1813088fe1fbc01fb467)" d="M185.432.063L96.44 17.501a3.268 3.268 0 0 0-2.634 3.014l-5.474 92.456a3.268 3.268 0 0 0 3.997 3.378l24.777-5.718c2.318-.535 4.413 1.507 3.936 3.838l-7.361 36.047c-.495 2.426 1.782 4.5 4.151 3.78l15.906-4.624c2.318-.678 4.893 1.063 4.356 3.51l-11.636 56.94c-.82 4.01 4.634 6.127 7.188 3.09l50.44-55.893c2.312-2.562 1.059-6.621-2.302-7.019l-17.83-2.292c-2.312-.297-3.582-2.722-2.622-4.913l30.096-69.61c1.103-2.553 1.297-5.463.55-8.14L200.4 3.505c-1.176-4.087-5.863-5.927-8.968-3.442z"></path></svg>
